<?xml version="1.0" encoding="iso-8859-1"?>
<!-- Uploaded to: SVG Repo, www.svgrepo.com, Generator: SVG Repo Mixer Tools -->
<svg version="1.1" id="Layer_1" xmlns="http://www.w3.org/2000/svg" xmlns:xlink="http://www.w3.org/1999/xlink" 
	 viewBox="0 0 512 512" xml:space="preserve">
<rect x="10.199" y="271.289" style="fill:#FAD05B;" width="491.602" height="178.496"/>
<circle style="fill:#E07743;" cx="256" cy="87.581" r="25.356"/>
<path d="M501.801,261.085h-22.166L283.912,65.361c-0.225-0.225-0.461-0.434-0.702-0.633c-6.527-7.76-16.3-12.703-27.21-12.703
	c-11.365,0-21.495,5.367-28.008,13.692L102.86,190.849c-3.983,3.983-3.983,10.441,0,14.425c1.992,1.992,4.602,2.987,7.212,2.987
	c2.61,0,5.221-0.995,7.212-2.987L222.651,99.907c5.023,13.548,18.076,23.229,33.349,23.229c15.344,0,28.448-9.771,33.42-23.417
	l161.367,161.367H10.199C4.566,261.085,0,265.651,0,271.284v178.492c0,5.633,4.566,10.199,10.199,10.199h491.602
	c5.633,0,10.199-4.566,10.199-10.199V271.284C512,265.651,507.434,261.085,501.801,261.085z M256,102.737
	c-8.357,0-15.157-6.8-15.157-15.157s6.8-15.157,15.157-15.157c8.357,0,15.157,6.8,15.157,15.157S264.357,102.737,256,102.737z
	 M491.602,439.578H20.398V281.483h471.203V439.578z"/>
<path d="M54.446,415.163c5.633,0,10.199-4.566,10.199-10.199v-34.31h35.415v34.31c0,5.633,4.566,10.199,10.199,10.199
	c5.633,0,10.199-4.566,10.199-10.199v-89.019c0-5.633-4.566-10.199-10.199-10.199c-5.633,0-10.199,4.566-10.199,10.199v34.31H64.646
	v-34.31c0-5.633-4.566-10.199-10.199-10.199s-10.199,4.566-10.199,10.199v89.019C44.247,410.597,48.813,415.163,54.446,415.163z"/>
<path d="M389.057,415.108c5.633,0,10.199-4.359,10.199-9.992c0-5.633-4.566-10.199-10.199-10.199h-44.201v-24.264h29.339
	c5.633,0,10.199-4.566,10.199-10.199c0-5.633-4.566-10.199-10.199-10.199h-29.339v-24.111h44.59c5.633,0,10.199-4.566,10.199-10.199
	c0-5.633-4.566-10.199-10.199-10.199h-54.789c-5.633,0-10.199,4.566-10.199,10.199v89.019c0,5.633,4.566,10.199,10.199,10.199
	L389.057,415.108z"/>
<path d="M460.92,415.108c5.633,0,10.199-4.359,10.199-9.992c0-5.633-4.566-10.199-10.199-10.199h-30.214v-78.972
	c0-5.633-4.566-10.199-10.199-10.199s-10.199,4.566-10.199,10.199v89.019c0,5.633,4.566,10.199,10.199,10.199L460.92,415.108z"/>
<path d="M250.128,326.144h17.001v78.819c0,5.633,4.566,10.199,10.199,10.199c5.633,0,10.199-4.566,10.199-10.199v-78.819h17
	c5.633,0,10.199-4.566,10.199-10.199c0-5.633-4.566-10.199-10.199-10.199h-54.399c-5.633,0-10.199,4.566-10.199,10.199
	C239.929,321.577,244.495,326.144,250.128,326.144z"/>
<path d="M186.652,415.163c30.166,0,54.709-24.542,54.709-54.709c0-30.166-24.542-54.709-54.709-54.709s-54.709,24.542-54.709,54.709
	C131.943,390.621,156.485,415.163,186.652,415.163z M186.652,326.144c18.919,0,34.31,15.392,34.31,34.31
	c0,18.918-15.392,34.31-34.31,34.31s-34.31-15.392-34.31-34.31C152.341,341.535,167.733,326.144,186.652,326.144z"/>
<path d="M71.779,246.295c2.61,0,5.221-0.995,7.212-2.987l10.349-10.349c3.983-3.983,3.983-10.441,0-14.425
	c-3.983-3.984-10.441-3.983-14.425,0l-10.349,10.349c-3.983,3.983-3.983,10.441,0,14.425
	C66.558,245.3,69.169,246.295,71.779,246.295z"/>
</svg>